<?xml version="1.0" encoding="utf-8"?>
<!-- Generator: Adobe Illustrator 25.2.3, SVG Export Plug-In . SVG Version: 6.00 Build 0)  -->
<svg version="1.1"
	 id="svg2" xmlns:cc="http://creativecommons.org/ns#" xmlns:dc="http://purl.org/dc/elements/1.1/" xmlns:rdf="http://www.w3.org/1999/02/22-rdf-syntax-ns#" xmlns:svg="http://www.w3.org/2000/svg"
	 xmlns="http://www.w3.org/2000/svg" xmlns:xlink="http://www.w3.org/1999/xlink" x="0px" y="0px" viewBox="0 0 661.7 195.5"
	 style="enable-background:new 0 0 661.7 195.5;" xml:space="preserve">
<style type="text/css">
	.st0{fill:#30B9AD;}
	.st1{fill:#1D3F8A;}
</style>
<g id="g10" transform="matrix(1.3333333,0,0,-1.3333333,0,559.37333)">
	<g id="g12" transform="scale(0.1)">
		<path id="path14" class="st0" d="M866.7,3630.5l245,245l-278.9,278.9c-54.7,54.7-143.3,54.7-198,0L41,3560.4
			c-54.7-54.7-54.7-143.3,0-198l278.9-278.9l245,245L432,3461.4l301.9,301.9L866.7,3630.5"/>
		<path id="path16" class="st0" d="M1863.9,3243.6c-28.9,9.9-49.9,17.3-63,22.2l-21-98.8c11.5-4.9,33.4-12.2,65.5-21.6
			c32.1-9.5,76.6-14.2,133.4-14.2c81.5,0,144.3,15.2,188.4,45.7c44.1,30.5,66.1,75.4,66.1,134.7c0,30.5-4.5,56.2-13.6,77.2
			c-9.1,21-22.1,38.9-38.9,53.7c-16.9,14.8-37.3,27.8-61.2,38.9c-23.9,11.1-51.1,22.4-81.6,34c-23.1,8.2-42.8,16.1-59.3,23.5
			c-16.5,7.4-30.3,15.4-41.4,24.1c-11.1,8.6-19.4,18.3-24.7,29c-5.4,10.7-8,23-8,37.1c0,27.2,11.9,47.1,35.8,59.9
			c23.9,12.8,51.9,19.1,84,19.1c37.1,0,68.8-3.5,95.1-10.5c26.4-7,45.7-13.8,58.1-20.4l21,98.8c-6.6,2.5-15.9,5.4-27.8,8.6
			c-11.9,3.3-25.8,6.4-41.4,9.3c-15.6,2.9-32.6,5.4-50.6,7.4c-18.1,2.1-36.3,3.1-54.4,3.1c-72.5,0-129.7-16.7-171.7-50
			c-42-33.4-63-78.4-63-135.3c0-28.8,4.9-53.1,14.8-72.9c9.9-19.8,23.1-36.7,39.5-50.7c16.5-14,36-26.2,58.7-36.4
			c22.6-10.3,46.3-20.4,71-30.3c51.1-20.6,87.7-39.1,110-55.6c22.2-16.5,33.4-38.7,33.4-66.7c0-27.2-11.3-46.9-34-59.3
			c-22.7-12.3-57.5-18.5-104.4-18.5C1931,3228.8,1892.7,3233.7,1863.9,3243.6L1863.9,3243.6z M2363.7,3331.9
			c12.8-40.8,32.3-76,58.7-105.6c26.4-29.7,59.9-52.9,100.7-69.8c40.8-16.9,89.2-25.3,145.2-25.3c44.5,0,84.2,4.1,119.2,12.4
			c35,8.2,59.5,16.1,73.5,23.5l-16.1,96.4c-14-6.6-34.8-13.4-62.4-20.4c-27.6-7-61.6-10.5-101.9-10.5c-71.7,0-124.4,17.3-158.1,51.9
			c-33.8,34.6-53.1,85.2-58.1,152h439.8c0.8,6.6,1.2,13.8,1.2,21.6c0,7.8,0,14.2,0,19.1c0,110.4-23.1,192.5-69.2,246.5
			c-46.1,53.9-112.4,80.9-198.9,80.9c-37.1,0-73.3-7-108.7-21c-35.4-14-66.7-35-93.9-63c-27.2-28-49-63.2-65.5-105.6
			c-16.5-42.4-24.7-92.1-24.7-148.9C2344.5,3417.4,2350.9,3372.7,2363.7,3331.9L2363.7,3331.9z M2466.9,3529
			c2.5,22.2,7.6,44.1,15.4,65.5c7.8,21.4,18.7,40.4,32.7,56.8c14,16.5,31.1,29.8,51.3,40.1c20.2,10.3,43.4,15.4,69.8,15.4
			c46.9,0,83.8-16.7,110.6-50c26.8-33.4,39.7-76,38.9-127.9L2466.9,3529z M3210.6,3638.9c37.1,40.4,86.5,60.5,148.3,60.5
			c34.6,0,61.6-1.2,80.9-3.7c19.3-2.5,34.8-5.4,46.3-8.6v-405.2c-14-11.6-34.2-22.7-60.5-33.4c-26.4-10.7-55.2-16.1-86.5-16.1
			c-32.9,0-61.1,6-84.6,17.9c-23.5,11.9-42.6,28.4-57.4,49.4c-14.8,21-25.5,45.7-32.1,74.1c-6.6,28.4-9.9,59.1-9.9,92.1
			C3155,3540.9,3173.6,3598.6,3210.6,3638.9L3210.6,3638.9z M3054.3,3331.3c12.8-41.2,31.5-76.6,56.2-106.3
			c24.7-29.6,55-52.7,90.8-69.2c35.8-16.5,76.8-24.7,122.9-24.7c37.1,0,69.8,4.9,98.2,14.8c28.4,9.9,49.6,19.3,63.6,28.4v-257H3601
			v851.3c-27.2,6.6-61.1,13.8-101.9,21.6c-40.8,7.8-87.9,11.7-141.5,11.7c-49.4,0-93.9-7.8-133.4-23.5
			c-39.5-15.6-73.3-37.9-101.3-66.7c-28-28.8-49.6-64.1-64.9-105.6c-15.2-41.6-22.9-88.3-22.9-140.2
			C3035.2,3417.4,3041.6,3372.5,3054.3,3331.3L3054.3,3331.3z M4310.2,3788.4h-114.9v-542.4c-4.1-1.7-10.9-3.1-20.4-4.3
			c-9.5-1.2-20-2.5-31.5-3.7c-11.5-1.2-23.9-2.3-37.1-3.1c-13.2-0.8-26-1.2-38.3-1.2c-58.5,0-100.1,16.9-124.8,50.7
			c-24.7,33.8-37.1,89.8-37.1,168v336.1h-114.9v-360.8c0-43.7,4.5-83.4,13.6-119.2c9.1-35.8,23.9-66.9,44.5-93.3
			c20.6-26.4,47.8-46.8,81.5-61.2c33.8-14.4,75.4-21.6,124.8-21.6c56.8,0,106.9,3.7,150.1,11.1c43.2,7.4,78,14.4,104.4,21V3788.4z
			 M4617.9,3252.8c-26.4,16.1-39.5,44.7-39.5,85.9c0,22.2,5.4,40.1,16.1,53.7c10.7,13.6,24.1,24.3,40.1,32.1
			c16.1,7.8,33.8,13,53.1,15.4c19.3,2.5,37.7,3.7,55,3.7c26.4,0,48.8-1.4,67.3-4.3c18.5-2.9,31.9-6.4,40.1-10.5v-191.5
			c-14-3.3-31.5-5.6-52.5-6.8c-21-1.2-45.1-1.9-72.3-1.9C4680,3228.8,4644.2,3236.8,4617.9,3252.8L4617.9,3252.8z M4603,3795.2
			c-34.6-6.2-59.3-12.6-74.1-19.1l13.6-95.1c14,5.8,35.2,11.3,63.6,16.7c28.4,5.4,61.6,8,99.5,8c29.7,0,53.8-4.3,72.3-13
			c18.5-8.6,33.1-20.2,43.9-34.6c10.7-14.4,18.1-30.9,22.2-49.4c4.1-18.5,6.2-37.3,6.2-56.2v-32.1c-3.3,0.8-9.1,2.1-17.3,3.7
			c-8.2,1.6-17.9,3.5-29,5.6c-11.1,2-22.9,3.7-35.2,4.9c-12.4,1.2-24.3,1.9-35.8,1.9c-36.2,0-70.8-3.7-103.8-11.1
			c-33-7.4-61.8-18.9-86.5-34.6c-24.7-15.7-44.3-36.3-58.7-61.8c-14.4-25.5-21.6-56-21.6-91.4c0-37.1,6.2-68.8,18.5-95.1
			c12.4-26.4,29.6-47.6,51.9-63.6s48.6-27.8,79.1-35.2c30.5-7.4,63.8-11.1,100.1-11.1c25.5,0,51.3,1,77.2,3.1
			c26,2.1,50,4.3,72.3,6.8c22.2,2.5,42.2,5.1,59.9,8c17.7,2.9,31.5,5.1,41.4,6.8v401.5c0,36.2-4.1,69.4-12.4,99.5
			c-8.2,30.1-22,56-41.4,77.8c-19.4,21.8-44.9,38.7-76.6,50.7c-31.7,11.9-70.6,17.9-116.8,17.9
			C4675.1,3804.5,4637.6,3801.4,4603,3795.2"/>
		<path id="path18" class="st1" d="M599.7,3293.7l-245-245l278.9-278.9c54.7-54.7,143.3-54.7,198,0l593.9,593.9
			c54.7,54.7,54.7,143.3,0,198l-278.9,278.9l-245-245l132.9-132.9l-301.9-301.9L599.7,3293.7"/>
	</g>
</g>
</svg>
